<mxfile host="app.diagrams.net" modified="2020-11-19T12:01:45.649Z" agent="5.0 (Macintosh; Intel Mac OS X 10_15_3) AppleWebKit/537.36 (KHTML, like Gecko) Chrome/80.0.3987.149 Safari/537.36" etag="8fMAfOfjeH050DTLOC5r" version="13.9.7" type="github">
  <diagram id="sAbxgpVXO-F2CWYyF31C" name="第 1 页">
    <mxGraphModel dx="2066" dy="1153" grid="1" gridSize="10" guides="1" tooltips="1" connect="1" arrows="1" fold="1" page="1" pageScale="1" pageWidth="827" pageHeight="1169" math="0" shadow="0">
      <root>
        <mxCell id="0" />
        <mxCell id="1" parent="0" />
      </root>
    </mxGraphModel>
  </diagram>
</mxfile>
